<svg width="110" height="30" viewBox="0 0 110 30" fill="none" xmlns="http://www.w3.org/2000/svg">
<g clip-path="url(#clip0_9672_90302)">
<path d="M73.8904 17.7006H72.3378C71.515 17.7006 70.9866 17.1913 70.9866 16.4815C70.9866 15.7716 71.4978 15.2435 72.3206 15.2435H75.0799C76.1935 15.2435 76.8149 15.8985 76.6514 17.1365L76.3226 19.4839C76.1953 20.2297 76.049 20.6841 75.3363 21.1762C74.0385 22.0867 72.4858 22.5411 70.6957 22.5411C68.9055 22.5411 67.4992 22.013 66.4028 20.9585C65.3063 19.9039 64.7589 18.4842 64.7589 16.7181C64.7589 14.6622 65.4526 12.9321 66.8417 11.514C68.2308 10.0943 70.0209 9.3844 72.195 9.3844C73.8027 9.3844 75.1539 9.80278 76.2331 10.6584C76.963 11.2414 77.0731 12.1879 76.4896 12.824C75.9233 13.3522 75.0833 13.3522 74.4258 12.788C73.7321 12.205 72.9093 11.9153 71.9781 11.9153C70.7542 11.9153 69.7128 12.3885 68.8539 13.3539C67.995 14.3004 67.575 15.4098 67.575 16.6666C67.575 18.7603 68.9813 20.0154 70.9728 20.0154C72.0142 20.0154 72.9093 19.7599 73.677 19.2507L73.8956 17.704L73.8904 17.7006Z" fill="#E10000"/>
<path d="M84.2941 18.5374H79.7085C79.7275 19.4839 80.4573 20.1749 81.5727 20.1749C82.1941 20.1749 82.7604 20.0291 83.2527 19.7205C84.0376 19.2661 84.7692 19.4101 85.079 20.012C85.4439 20.7579 85.1341 21.4129 84.3474 21.8501C83.5264 22.3045 82.5022 22.5411 81.3145 22.5411C80.1268 22.5411 79.1043 22.1227 78.3005 21.3031C77.5156 20.4664 77.1128 19.4461 77.1128 18.2459C77.1128 16.881 77.5689 15.6978 78.5019 14.6982C79.4331 13.6968 80.6019 13.2064 82.0271 13.2064C83.251 13.2064 84.2011 13.5888 84.8948 14.3347C85.6074 15.0806 85.9551 15.9173 85.9551 16.8278C85.9551 17.9749 85.4078 18.5391 84.2924 18.5391L84.2941 18.5374ZM79.9805 16.8107H83.3594C83.3594 16.0288 82.757 15.4458 81.898 15.4458C80.9479 15.4458 80.2542 16.0099 79.9805 16.8107Z" fill="#E10000"/>
<path d="M87.5008 10.8402C87.6282 9.96739 88.1773 9.49414 88.9071 9.49414C89.711 9.49414 90.2033 10.168 90.0759 11.0596L88.6507 21.0871C88.5594 21.9598 87.9931 22.4331 87.2616 22.4331C86.4577 22.4331 85.9637 21.7592 86.0928 20.8676L87.4991 10.8402H87.5008Z" fill="#E10000"/>
<path d="M89.5285 19.8285C89.9847 19.3192 90.6422 19.3004 91.2085 19.7376C91.7748 20.156 92.3962 20.3755 93.0899 20.3755C93.7302 20.3755 94.1864 20.1389 94.1864 19.7754C94.1864 19.4118 94.0039 19.2661 93.3636 19.1015L92.5598 18.8837C90.8608 18.4653 90.0019 17.5548 90.0019 16.154C90.0019 15.2623 90.3496 14.5353 91.0622 14.0072C91.7748 13.4791 92.651 13.2064 93.6752 13.2064C94.4601 13.2064 95.3018 13.443 96.159 13.9163C96.8355 14.2798 97.1642 14.9897 96.7804 15.6996C96.4327 16.2637 95.5755 16.3546 95.0092 15.9911C94.3327 15.6087 93.8025 15.4081 93.4015 15.4081C92.8902 15.4081 92.5064 15.6807 92.5064 16.0271C92.5064 16.2997 92.725 16.4815 93.1467 16.5723L94.0969 16.809C95.6856 17.1913 96.6547 17.9561 96.6547 19.4839C96.6547 20.4852 96.2898 21.2483 95.5411 21.7764C94.8112 22.2856 93.8783 22.5411 92.7457 22.5411C91.613 22.5411 90.6267 22.2136 89.7867 21.5775C89.2015 21.1231 89.1481 20.2126 89.5303 19.8302" fill="#E10000"/>
<path d="M99.7049 13.3333C100.509 13.3333 101.003 14.0072 100.874 14.8988L99.9786 21.0854C99.8873 21.9598 99.321 22.4314 98.5895 22.4314C97.7856 22.4314 97.2916 21.7575 97.4207 20.8659L98.2968 14.6793C98.4242 13.8066 98.9733 13.3333 99.7031 13.3333H99.7049ZM100.123 9.3844C100.946 9.3844 101.64 10.0394 101.64 10.895C101.64 11.7507 100.946 12.3868 100.123 12.3868C99.3004 12.3868 98.6256 11.7129 98.6256 10.895C98.6256 10.0771 99.3021 9.3844 100.123 9.3844Z" fill="#E10000"/>
<path d="M107.377 17.536C107.523 16.4437 107.084 15.607 106.079 15.607C104.927 15.607 104.416 16.4077 104.197 17.8824L103.722 21.1402C103.595 21.9959 103.137 22.4314 102.316 22.4314C101.495 22.4314 101.037 21.7575 101.165 20.8659L102.023 14.8062C102.17 13.8597 102.717 13.3316 103.449 13.3316C103.979 13.3316 104.418 13.714 104.545 14.2421C105.148 13.5511 105.915 13.2047 106.847 13.2047C107.924 13.2047 108.764 13.642 109.33 14.5147C109.916 15.3703 110.115 16.4437 109.933 17.7177L109.439 21.1385C109.311 21.9941 108.855 22.4297 108.033 22.4297C107.21 22.4297 106.754 21.7558 106.881 20.8642L107.375 17.5343L107.377 17.536Z" fill="#E10000"/>
<path d="M2.67662 21.1402C2.54924 21.9221 2.05523 22.4314 1.32539 22.4314C0.302937 22.4314 -0.117061 21.7215 0.0292496 20.6841L1.27547 11.9204C1.40285 11.1385 1.89687 10.6275 2.6267 10.6275C3.64915 10.6275 4.06915 11.3374 3.92284 12.3748L2.67662 21.1385V21.1402Z" fill="#E10000"/>
<path d="M3.82823 19.8285C4.28438 19.3192 4.94192 19.3004 5.50823 19.7376C6.07454 20.156 6.69593 20.3755 7.38961 20.3755C8.02994 20.3755 8.48608 20.1389 8.48608 19.7754C8.48608 19.4118 8.30363 19.2661 7.6633 19.1015L6.85945 18.8837C5.16052 18.4653 4.30159 17.5548 4.30159 16.154C4.30159 15.2623 4.64929 14.5353 5.36191 14.0072C6.07454 13.4791 6.95068 13.2064 7.97486 13.2064C8.75977 13.2064 9.59977 13.443 10.4587 13.9163C11.1352 14.2798 11.4639 14.9897 11.0801 15.6996C10.7324 16.2637 9.87518 16.3546 9.30887 15.9911C8.63239 15.6087 8.10223 15.4081 7.70117 15.4081C7.18994 15.4081 6.80609 15.6807 6.80609 16.0271C6.80609 16.2997 7.0247 16.4815 7.44469 16.5723L8.39485 16.809C9.98362 17.1913 10.9527 17.9561 10.9527 19.4839C10.9527 20.4852 10.5878 21.2483 9.83903 21.7764C9.1092 22.2856 8.17625 22.5411 7.04363 22.5411C5.91101 22.5411 4.9247 22.2136 4.08471 21.5775C3.49946 21.1231 3.4461 20.2126 3.82823 19.8302" fill="#E10000"/>
<path d="M16.1235 13.4242H16.8533C17.6572 13.4242 18.1512 13.9334 18.1512 14.6073C18.1512 15.2812 17.6572 15.8076 16.8533 15.8076H15.793L15.3541 18.9386C15.2628 19.6845 15.5176 19.9571 16.1218 20.0308C16.8344 20.1217 17.1993 20.5041 17.1993 21.1951C17.1993 21.8861 16.633 22.3782 15.7379 22.3782H15.5004C14.5502 22.3782 13.8204 22.0147 13.3264 21.3048C12.8324 20.595 12.6688 19.7033 12.8151 18.6471L13.2162 15.8076H12.9425C12.1387 15.8076 11.6447 15.2794 11.6447 14.6073C11.6447 13.9351 12.1387 13.4242 12.9425 13.4242H13.545L13.7274 12.1862C13.8548 11.3134 14.4039 10.8401 15.1337 10.8401C15.9376 10.8401 16.4316 11.514 16.2853 12.4056L16.1218 13.4242H16.1235Z" fill="#E10000"/>
<path d="M24.8728 18.5374H20.2873C20.3062 19.4839 21.036 20.1749 22.1514 20.1749C22.7728 20.1749 23.3391 20.0291 23.8314 19.7205C24.6163 19.2661 25.3479 19.4101 25.6577 20.012C26.0226 20.7579 25.7128 21.4129 24.9262 21.8501C24.1051 22.3045 23.0809 22.5411 21.8932 22.5411C20.7055 22.5411 19.6831 22.1227 18.8792 21.3031C18.0943 20.4664 17.6915 19.4461 17.6915 18.2459C17.6915 16.881 18.1477 15.6978 19.0806 14.6982C20.0118 13.6968 21.1806 13.2064 22.6059 13.2064C23.8297 13.2064 24.7799 13.5888 25.4735 14.3347C26.1862 15.0806 26.5339 15.9173 26.5339 16.8278C26.5339 17.9749 25.9865 18.5391 24.8711 18.5391L24.8728 18.5374ZM20.5592 16.8107H23.9381C23.9381 16.0288 23.3357 15.4458 22.4768 15.4458C21.5266 15.4458 20.8329 16.0099 20.5592 16.8107Z" fill="#E10000"/>
<path d="M3.07944 6.93927C3.90223 6.93927 4.59591 7.59428 4.59591 8.4499C4.59591 9.30552 3.90223 9.94167 3.07944 9.94167C2.25666 9.94167 1.58191 9.2678 1.58191 8.4499C1.58191 7.632 2.25838 6.93927 3.07944 6.93927Z" fill="#E10000"/>
<path d="M55.1816 2.77092C55.1816 4.30041 53.9337 5.54355 52.4 5.54355C52.3931 5.54355 52.3811 5.54184 52.3708 5.54184H38.0529C38.0254 5.54355 38.0099 5.54355 37.991 5.54184H37.9789C36.4693 5.5144 35.2438 4.27469 35.2438 2.77092C35.2438 1.26715 36.4487 0.0462963 37.9411 0.00171468C37.9583 0 37.972 0 37.9893 0H52.3983C53.9337 0 55.1799 1.24314 55.1799 2.77092" fill="#4FAB83"/>
<path d="M56.2849 3.87001C56.2849 5.3995 55.037 6.64264 53.5033 6.64264C53.4964 6.64264 53.4844 6.64093 53.474 6.64093H39.1562C39.1287 6.64264 39.1132 6.64264 39.0942 6.64093H39.0822C37.5726 6.61349 36.347 5.37378 36.347 3.87001C36.347 2.36624 37.5537 1.14539 39.0478 1.10081C39.065 1.09909 39.0788 1.09909 39.096 1.09909H53.505C55.0404 1.09909 56.2866 2.34223 56.2866 3.87001" fill="#E10000"/>
<path d="M55.0956 26.1282C55.0956 27.656 53.8476 28.9009 52.314 28.9009C52.3071 28.9009 52.295 28.8991 52.2847 28.8991H38.139C38.1115 28.9009 38.096 28.9009 38.077 28.8991H38.065C36.5554 28.8717 35.3298 27.632 35.3298 26.1282C35.3298 24.6244 36.5365 23.4036 38.0306 23.359C38.0478 23.3573 38.0615 23.3573 38.0788 23.3573H52.3157C53.8511 23.3573 55.0973 24.6004 55.0973 26.1282" fill="#4FAB83"/>
<path d="M56.1988 27.2273C56.1988 28.7551 54.9509 30 53.4172 30C53.4103 30 53.3983 29.9983 53.388 29.9983H39.2423C39.2147 30 39.1992 30 39.1803 29.9983H39.1683C37.6587 29.9708 36.4331 28.7311 36.4331 27.2273C36.4331 25.7236 37.6397 24.5027 39.1338 24.4581C39.151 24.4564 39.1648 24.4564 39.182 24.4564H53.4189C54.9543 24.4564 56.2006 25.6996 56.2006 27.2273" fill="#E10000"/>
<path d="M34.4726 10.4955C34.4726 12.0233 33.2246 13.2682 31.6909 13.2682C30.1573 13.2682 28.9076 12.0233 28.9076 10.4955C28.9076 8.96775 30.1573 7.72461 31.6909 7.72461C33.2246 7.72461 34.4726 8.96775 34.4726 10.4955Z" fill="#4FAB83"/>
<path d="M61.516 10.4955C61.516 12.0233 60.2664 13.2682 58.7327 13.2682C58.7258 13.2682 58.7137 13.2682 58.7034 13.2664H39.4403C39.4127 13.2682 39.3938 13.2682 39.3749 13.2664H39.3645C37.855 13.2407 36.6294 11.9993 36.6294 10.4955C36.6294 8.99176 37.8378 7.77091 39.3301 7.72632C39.3456 7.72461 39.3611 7.72461 39.3766 7.72461H58.7344C60.2681 7.72461 61.5177 8.96775 61.5177 10.4955" fill="#4FAB83"/>
<path d="M35.576 11.5947C35.576 13.1224 34.328 14.3673 32.7943 14.3673C31.2607 14.3673 30.011 13.1224 30.011 11.5947C30.011 10.0669 31.2607 8.82373 32.7943 8.82373C34.328 8.82373 35.576 10.0669 35.576 11.5947Z" fill="#E10000"/>
<path d="M62.6194 11.5947C62.6194 13.1224 61.3697 14.3673 59.8361 14.3673C59.8292 14.3673 59.8171 14.3673 59.8068 14.3656H40.5437C40.5161 14.3673 40.4972 14.3673 40.4783 14.3656H40.4679C38.9584 14.3398 37.7328 13.0984 37.7328 11.5947C37.7328 10.0909 38.9411 8.87003 40.4335 8.82545C40.449 8.82373 40.4645 8.82373 40.48 8.82373H59.8378C61.3715 8.82373 62.6211 10.0669 62.6211 11.5947" fill="#E10000"/>
<path d="M55.9321 18.4036C55.9321 19.9314 57.1801 21.1762 58.7138 21.1762C60.2474 21.1762 61.4971 19.9314 61.4971 18.4036C61.4971 16.8758 60.2474 15.6327 58.7138 15.6327C57.1801 15.6327 55.9321 16.8758 55.9321 18.4036Z" fill="#4FAB83"/>
<path d="M28.9265 18.4036C28.9265 19.9314 30.1762 21.1762 31.7099 21.1762C31.7168 21.1762 31.7288 21.1762 31.7391 21.1745H51.0023C51.0298 21.1762 51.0487 21.1762 51.0677 21.1745H51.0797C52.5876 21.1488 53.8132 19.9074 53.8132 18.4036C53.8132 16.8998 52.6048 15.679 51.1124 15.6344C51.0969 15.6327 51.0814 15.6327 51.066 15.6327H31.7082C30.1745 15.6327 28.9248 16.8758 28.9248 18.4036" fill="#4FAB83"/>
<path d="M57.0337 19.5027C57.0337 21.0305 58.2816 22.2754 59.8153 22.2754C61.349 22.2754 62.5987 21.0305 62.5987 19.5027C62.5987 17.975 61.349 16.7318 59.8153 16.7318C58.2816 16.7318 57.0337 17.975 57.0337 19.5027Z" fill="#E10000"/>
<path d="M30.0282 19.5027C30.0282 21.0305 31.2779 22.2754 32.8116 22.2754C32.8184 22.2754 32.8305 22.2754 32.8408 22.2736H52.104C52.1315 22.2754 52.1504 22.2754 52.1694 22.2736H52.1814C53.6893 22.2479 54.9148 21.0065 54.9148 19.5027C54.9148 17.999 53.7065 16.7781 52.2141 16.7335C52.1986 16.7318 52.1831 16.7318 52.1676 16.7318H32.8098C31.2762 16.7318 30.0265 17.975 30.0265 19.5027" fill="#E10000"/>
</g>
<defs>
<clipPath id="clip0_9672_90302">
<rect width="110" height="30" fill="white"/>
</clipPath>
</defs>
</svg>
